<?xml version="1.0" encoding="UTF-8"?>
<svg width="55px" height="64px" viewBox="0 0 55 64" version="1.1" xmlns="http://www.w3.org/2000/svg" xmlns:xlink="http://www.w3.org/1999/xlink">
    <!-- Generator: Sketch 48.1 (47250) - http://www.bohemiancoding.com/sketch -->
    <title>img-lastpass-generate-strong-passwords-svg-svg</title>
    <desc>Created with Sketch.</desc>
    <defs>
        <polygon id="path-1" points="16 40 37 40 37 24 16 24"></polygon>
        <filter x="-16.7%" y="-21.9%" width="133.3%" height="143.8%" filterUnits="objectBoundingBox" id="filter-2">
            <feOffset dx="5" dy="-5" in="SourceAlpha" result="shadowOffsetInner1"></feOffset>
            <feComposite in="shadowOffsetInner1" in2="SourceAlpha" operator="arithmetic" k2="-1" k3="1" result="shadowInnerInner1"></feComposite>
            <feColorMatrix values="0 0 0 0 0.937254902   0 0 0 0 0.976470588   0 0 0 0 1  0 0 0 1 0" type="matrix" in="shadowInnerInner1"></feColorMatrix>
        </filter>
    </defs>
    <g id="homepage-v1" stroke="none" stroke-width="1" fill="none" fill-rule="evenodd" transform="translate(-1081.000000, -1481.000000)">
        <g id="Group-26" transform="translate(100.000000, 1480.000000)">
            <g id="LP-Standard">
                <g id="Stacked-Group" transform="translate(814.000000, 0.000000)">
                    <g id="img-lastpass-generate-strong-passwords-svg-svg" transform="translate(168.000000, 0.000000)">
                        <path d="M21.4412815,54.5424049 C31.2808372,56.4031065 41.7528376,52.5419216 47.8962584,43.8227476 C56.2807331,31.925257 53.4278577,15.4860048 41.5328569,7.10368183 C29.6355645,-1.27864109 13.1942948,1.56969882 4.81211159,13.4671894 C-1.35880679,22.2253191 -1.44359104,33.4491074 3.69158463,42.1041193" id="Page-1" stroke="#3B4763" stroke-width="2" stroke-linecap="round" stroke-linejoin="round"></path>
                        <path d="M21,55 L30,64" id="Stroke-1" stroke="#3B4763" stroke-width="2" stroke-linecap="round" stroke-linejoin="round"></path>
                        <path d="M30,46 L21,55" id="Stroke-3" stroke="#3B4763" stroke-width="2" stroke-linecap="round" stroke-linejoin="round"></path>
                        <path d="M21,23 L21,19 C21,15.686 23.464,13 26.5,13 C29.5378333,13 32,15.686 32,19 L32,23" id="Stroke-14" stroke="#3B4763" stroke-width="2" stroke-linecap="round" stroke-linejoin="round"></path>
                        <g id="Stroke-11" stroke-linecap="round" stroke-linejoin="round">
                            <use fill="black" fill-opacity="1" filter="url(#filter-2)" xlink:href="#path-1"></use>
                            <use stroke="#3B4763" stroke-width="2" xlink:href="#path-1"></use>
                        </g>
                        <path d="M27,34.8300018 L27,31" id="Stroke-13" stroke="#D32D27" stroke-width="2" stroke-linecap="round" stroke-linejoin="round"></path>
                        <path d="M29,28.9972451 C29,30.0997244 28.104,30.9944902 27,30.9944902 C25.896,30.9944902 25,30.0997244 25,28.9972451 C25,27.8947658 25.896,27 27,27 C28.104,27 29,27.8947658 29,28.9972451 Z" id="Stroke-15" fill="#D32D27"></path>
                    </g>
                </g>
            </g>
        </g>
    </g>
</svg>