<?xml version="1.0" encoding="UTF-8"?>
<svg width="59px" height="60px" viewBox="0 0 59 60" version="1.1" xmlns="http://www.w3.org/2000/svg" xmlns:xlink="http://www.w3.org/1999/xlink">
    <!-- Generator: Sketch 48.1 (47250) - http://www.bohemiancoding.com/sketch -->
    <title>share-effortlessly-svg</title>
    <desc>Created with Sketch.</desc>
    <defs>
        <path d="M45.3913043,10.0869565 L45.3913043,5.04347826 L12.6086957,5.04347826 L12.6086957,0 L0,0 L0,39.0869565 C0,41.1749565 1.68956522,42.8695652 3.7826087,42.8695652 C5.8706087,42.8695652 7.56521739,41.1749565 7.56521739,39.0869565 L7.56521739,10.0869565 L50.4347826,10.0869565 L50.4347826,25.2173913 L50.4347826,10.0869565" id="path-1"></path>
        <filter x="-6.9%" y="-8.2%" width="113.9%" height="116.3%" filterUnits="objectBoundingBox" id="filter-2">
            <feOffset dx="5" dy="-5" in="SourceAlpha" result="shadowOffsetInner1"></feOffset>
            <feComposite in="shadowOffsetInner1" in2="SourceAlpha" operator="arithmetic" k2="-1" k3="1" result="shadowInnerInner1"></feComposite>
            <feColorMatrix values="0 0 0 0 0.937254902   0 0 0 0 0.976470588   0 0 0 0 1  0 0 0 1 0" type="matrix" in="shadowInnerInner1"></feColorMatrix>
        </filter>
    </defs>
    <g id="homepage-v1" stroke="none" stroke-width="1" fill="none" fill-rule="evenodd" transform="translate(-670.000000, -1728.000000)" stroke-linecap="round" stroke-linejoin="round">
        <g id="Group-26" transform="translate(100.000000, 1480.000000)">
            <g id="LP-Standard">
                <g id="Stacked-Group" transform="translate(408.000000, 249.000000)">
                    <g id="share-effortlessly-svg" transform="translate(163.000000, 0.000000)">
                        <g id="Stroke-1">
                            <use fill="black" fill-opacity="1" filter="url(#filter-2)" xlink:href="#path-1"></use>
                            <use stroke="#3B4763" stroke-width="2" xlink:href="#path-1"></use>
                        </g>
                        <path d="M3.7826087,42.8695652 L22.6956522,42.8695652" id="Stroke-3" stroke="#3B4763" stroke-width="2"></path>
                        <path d="M37,42.5806087 L48.1586957,37" id="Stroke-11" stroke="#3B4763" stroke-width="2"></path>
                        <path d="M37,48 L47.7274783,52.0221739" id="Stroke-13" stroke="#3B4763" stroke-width="2"></path>
                        <path d="M57,35.5 C57,37.984 54.984,40 52.5,40 C50.016,40 48,37.984 48,35.5 C48,33.016 50.016,31 52.5,31 C54.984,31 57,33.016 57,35.5 Z" id="Stroke-5" stroke="#D32D27" stroke-width="2" fill="#FFFFFF"></path>
                        <path d="M57,53.5 C57,55.984 54.984,58 52.5,58 C50.016,58 48,55.984 48,53.5 C48,51.016 50.016,49 52.5,49 C54.984,49 57,51.016 57,53.5 Z" id="Stroke-7" stroke="#D32D27" stroke-width="2" fill="#FFFFFF"></path>
                        <path d="M37,45.5 C37,47.984 34.984,50 32.5,50 C30.016,50 28,47.984 28,45.5 C28,43.016 30.016,41 32.5,41 C34.984,41 37,43.016 37,45.5 Z" id="Stroke-9" stroke="#D32D27" stroke-width="2" fill="#FFFFFF"></path>
                    </g>
                </g>
            </g>
        </g>
    </g>
</svg>