<?xml version="1.0" encoding="UTF-8"?>
<svg width="58px" height="58px" viewBox="0 0 58 58" version="1.1" xmlns="http://www.w3.org/2000/svg" xmlns:xlink="http://www.w3.org/1999/xlink">
    <!-- Generator: Sketch 48.1 (47250) - http://www.bohemiancoding.com/sketch -->
    <title>img-lastpass-prepare-for-the-unknown-emergency-access-future-digital-legacy-contingency-plan-svg-svg</title>
    <desc>Created with Sketch.</desc>
    <defs>
        <circle id="path-1" cx="28" cy="27" r="26"></circle>
        <filter x="-4.8%" y="-4.8%" width="109.6%" height="109.6%" filterUnits="objectBoundingBox" id="filter-2">
            <feOffset dx="5" dy="-5" in="SourceAlpha" result="shadowOffsetInner1"></feOffset>
            <feComposite in="shadowOffsetInner1" in2="SourceAlpha" operator="arithmetic" k2="-1" k3="1" result="shadowInnerInner1"></feComposite>
            <feColorMatrix values="0 0 0 0 0.937254902   0 0 0 0 0.976470588   0 0 0 0 1  0 0 0 1 0" type="matrix" in="shadowInnerInner1"></feColorMatrix>
        </filter>
    </defs>
    <g id="homepage-v1" stroke="none" stroke-width="1" fill="none" fill-rule="evenodd" transform="translate(-1079.000000, -1731.000000)">
        <g id="Group-26" transform="translate(100.000000, 1480.000000)">
            <g id="LP-Standard">
                <g id="Stacked-Group" transform="translate(814.000000, 252.000000)">
                    <g id="img-lastpass-prepare-for-the-unknown-emergency-access-future-digital-legacy-contingency-plan-svg-svg" transform="translate(166.000000, 0.000000)">
                        <g id="Oval-3">
                            <use fill="#FFFFFF" fill-rule="evenodd" xlink:href="#path-1"></use>
                            <use fill="black" fill-opacity="1" filter="url(#filter-2)" xlink:href="#path-1"></use>
                            <circle stroke="#3B4763" stroke-width="2" cx="28" cy="27" r="25"></circle>
                        </g>
                        <path d="M31.25,38.75 L31.25,53.0238333 C31.25,54.1284028 30.3545695,55.0238333 29.25,55.0238333 L26,55.0238333 C24.8954305,55.0238333 24,54.1284028 24,53.0238333 L24,38.75" id="Stroke-3" stroke="#3B4763" stroke-width="2" fill="#FFFFFF" stroke-linecap="round" stroke-linejoin="round"></path>
                        <path d="M16.2375833,31.25 L2,31.25 C0.8954305,31.25 1.3527075e-16,30.3545695 0,29.25 L0,26 C-1.3527075e-16,24.8954305 0.8954305,24 2,24 L16.1989167,24" id="Stroke-1" stroke="#3B4763" stroke-width="2" fill="#FFFFFF" stroke-linecap="round" stroke-linejoin="round"></path>
                        <path d="M39.0386667,24 L53.3125,24 C54.4170695,24 55.3125,24.8954305 55.3125,26 L55.3125,29.25 C55.3125,30.3545695 54.4170695,31.25 53.3125,31.25 L39,31.25" id="Stroke-5" stroke="#3B4763" stroke-width="2" fill="#FFFFFF" stroke-linecap="round" stroke-linejoin="round"></path>
                        <path d="M24,16.2375833 L24,2 C24,0.8954305 24.8954305,2.02906125e-16 26,0 L29.25,0 C30.3545695,-2.02906125e-16 31.25,0.8954305 31.25,2 L31.25,16.27625" id="Stroke-7" stroke="#3B4763" stroke-width="2" fill="#FFFFFF" stroke-linecap="round" stroke-linejoin="round"></path>
                        <path d="M40.1666667,27.0833333 C40.1666667,33.75575 34.75575,39.1666667 28.0833333,39.1666667 C21.4060833,39.1666667 16,33.75575 16,27.0833333 C16,20.4109167 21.4060833,15 28.0833333,15 C34.75575,15 40.1666667,20.4109167 40.1666667,27.0833333 Z" id="Stroke-9" stroke="#D32D27" stroke-width="2" fill="#FFFFFF" stroke-linecap="round" stroke-linejoin="round"></path>
                    </g>
                </g>
            </g>
        </g>
    </g>
</svg>